<?xml version="1.0" encoding="utf-8"?>
<!-- Generator: Adobe Illustrator 26.0.1, SVG Export Plug-In . SVG Version: 6.00 Build 0)  -->
<svg version="1.1" id="Layer_1" xmlns="http://www.w3.org/2000/svg" xmlns:xlink="http://www.w3.org/1999/xlink" x="0px" y="0px"
	 viewBox="0 0 300 120" style="enable-background:new 0 0 300 120;" xml:space="preserve">
<style type="text/css">
	.st0{fill:#B9A45A;}
	.st1{fill:#B19652;}
	.st2{fill:#999697;}
	.st3{fill:none;stroke:#000000;stroke-width:0.45;stroke-miterlimit:10;}
	.st4{fill:#1E1E1E;}
</style>
<g>
	<g>
		<path class="st0" d="M69.5,116l-0.6-1.2l-2.7,0l-0.6,1.2h-1.2l2.7-5.4h1l2.5,5.4L69.5,116L69.5,116z M67.6,111.9L67.6,111.9l-1,2
			h1.9L67.6,111.9z"/>
		<path class="st0" d="M83.6,114.5c0,0.2-0.1,0.4-0.2,0.6c-0.1,0.2-0.3,0.3-0.5,0.5c-0.2,0.1-0.4,0.2-0.7,0.3
			c-0.2,0.1-0.5,0.1-0.8,0.1h-3.1l0-5.4h3c0.3,0,0.6,0,0.9,0.1c0.3,0.1,0.5,0.2,0.7,0.3c0.2,0.1,0.3,0.3,0.4,0.5
			c0.1,0.2,0.1,0.4,0.1,0.6c0,0.2,0,0.3-0.1,0.4s-0.1,0.2-0.2,0.3c-0.1,0.1-0.2,0.2-0.3,0.2c-0.1,0.1-0.2,0.1-0.4,0.2v0
			c0.1,0,0.2,0.1,0.4,0.1c0.1,0.1,0.2,0.2,0.3,0.3c0.1,0.1,0.2,0.2,0.2,0.4C83.6,114.2,83.6,114.4,83.6,114.5z M82.4,112.2
			c0-0.1,0-0.2-0.1-0.3c0-0.1-0.1-0.2-0.2-0.2c-0.1-0.1-0.2-0.1-0.3-0.2c-0.1,0-0.3-0.1-0.5-0.1h-1.7v1.4l1.6,0
			c0.3,0,0.6-0.1,0.8-0.2C82.3,112.5,82.4,112.4,82.4,112.2L82.4,112.2z M82.4,114.4c0-0.2-0.1-0.4-0.3-0.5
			c-0.2-0.1-0.4-0.2-0.8-0.2h-1.7v1.4h1.6c0.3,0,0.6-0.1,0.8-0.2C82.3,114.8,82.4,114.6,82.4,114.4L82.4,114.4L82.4,114.4z"/>
		<path class="st0" d="M91,116l-0.6-1.2l-2.7,0l-0.6,1.2H86l2.7-5.4h1l2.5,5.4L91,116L91,116z M89.1,111.9L89.1,111.9l-1,2H90
			L89.1,111.9z"/>
		<path class="st0" d="M95.2,116l0-5.4h1.2v4.5h3.6v0.9H95.2z"/>
		<path class="st0" d="M107.7,116l-0.6-1.2l-2.7,0l-0.6,1.2h-1.2l2.7-5.4h1l2.5,5.4L107.7,116L107.7,116z M105.8,111.9L105.8,111.9
			l-1,2h1.9L105.8,111.9L105.8,111.9L105.8,111.9z"/>
		<path class="st0" d="M113.5,115.5c0,0.3-0.1,0.5-0.2,0.8c-0.1,0.2-0.3,0.4-0.4,0.6c-0.2,0.2-0.4,0.3-0.6,0.4
			c-0.2,0.1-0.5,0.2-0.8,0.2c-0.2,0-0.3,0-0.5-0.1s-0.3-0.1-0.4-0.2l0.2-0.8c0.1,0,0.2,0.1,0.3,0.1c0.1,0,0.2,0,0.3,0
			c0.2,0,0.4,0,0.5-0.1s0.2-0.2,0.3-0.3c0.1-0.1,0.1-0.3,0.1-0.4c0-0.2,0-0.3,0-0.5v-4.7h1.2L113.5,115.5L113.5,115.5L113.5,115.5z"
			/>
		<path class="st0" d="M117.1,116v-5.4h1.2v5.4H117.1z"/>
		<path class="st0" d="M132,115.4c-0.2,0.1-0.4,0.2-0.6,0.3c-0.2,0.1-0.5,0.2-0.8,0.3s-0.7,0.1-1,0.1c-0.4,0-0.7-0.1-1.1-0.2
			s-0.7-0.3-1-0.5s-0.5-0.5-0.7-0.9c-0.2-0.3-0.3-0.8-0.3-1.2c0-0.5,0.1-0.9,0.3-1.2c0.2-0.3,0.4-0.6,0.7-0.9s0.6-0.4,1-0.5
			c0.4-0.1,0.7-0.2,1.1-0.2c0.1,0,0.2,0,0.3,0c0.1,0,0.2,0,0.4,0c0.1,0,0.3,0,0.4,0.1c0.1,0,0.3,0.1,0.4,0.1c0.1,0,0.3,0.1,0.4,0.2
			c0.1,0.1,0.3,0.1,0.4,0.2c0.1,0.1,0.2,0.1,0.3,0.2s0.2,0.1,0.2,0.2l-0.5,0.7c0,0-0.1-0.1-0.2-0.1c-0.1,0-0.2-0.1-0.3-0.1
			c-0.1,0-0.2-0.1-0.3-0.1c-0.1,0-0.2-0.1-0.2-0.1c-0.2-0.1-0.3-0.1-0.6-0.1c-0.2,0-0.4-0.1-0.7-0.1c-0.3,0-0.5,0-0.8,0.1
			c-0.2,0.1-0.4,0.2-0.6,0.4c-0.2,0.2-0.3,0.3-0.4,0.6c-0.1,0.2-0.1,0.5-0.1,0.8s0.1,0.5,0.2,0.8c0.1,0.2,0.2,0.4,0.4,0.6
			c0.2,0.2,0.4,0.3,0.6,0.4c0.2,0.1,0.5,0.1,0.7,0.1c0.2,0,0.3,0,0.5,0c0.2,0,0.3-0.1,0.5-0.1c0.2,0,0.3-0.1,0.4-0.2
			c0.1-0.1,0.3-0.1,0.4-0.2v-0.8h-1.9l0-0.8h2.9v2.1C132.3,115.2,132.2,115.3,132,115.4L132,115.4L132,115.4z"/>
		<path class="st0" d="M139.9,116c-0.2-0.3-0.5-0.6-0.7-0.9c-0.1-0.1-0.2-0.2-0.3-0.4c-0.1-0.1-0.2-0.2-0.3-0.4
			c-0.1-0.1-0.2-0.2-0.3-0.3c-0.1-0.1-0.2-0.2-0.2-0.3h-1l0,2.1h-1.2v-5.4h3.2c0.3,0,0.6,0,0.9,0.1c0.3,0.1,0.5,0.2,0.7,0.3
			c0.2,0.1,0.3,0.3,0.5,0.5c0.1,0.2,0.2,0.4,0.2,0.6c0,0.2,0,0.4-0.1,0.6c-0.1,0.2-0.2,0.4-0.4,0.5s-0.4,0.3-0.6,0.4
			c-0.2,0.1-0.4,0.2-0.7,0.2l0.1,0l1.6,2.1v0.1L139.9,116L139.9,116z M140.1,112.2c0-0.2-0.1-0.4-0.2-0.5c-0.2-0.1-0.4-0.2-0.8-0.2
			h-2v1.4l1.9,0c0.3,0,0.6-0.1,0.8-0.2C140,112.6,140.1,112.4,140.1,112.2L140.1,112.2L140.1,112.2z"/>
		<path class="st0" d="M151,113.3c0,0.5-0.1,0.9-0.3,1.2s-0.5,0.6-0.8,0.9c-0.3,0.2-0.7,0.4-1.1,0.5c-0.4,0.1-0.8,0.2-1.2,0.2
			c-0.4,0-0.8-0.1-1.2-0.2c-0.4-0.1-0.8-0.3-1.1-0.5c-0.3-0.2-0.6-0.5-0.8-0.9s-0.3-0.8-0.3-1.2s0.1-0.9,0.3-1.3s0.5-0.7,0.8-0.9
			c0.3-0.2,0.7-0.4,1.1-0.5c0.4-0.1,0.8-0.2,1.2-0.2s0.8,0.1,1.2,0.2c0.4,0.1,0.8,0.3,1.1,0.6c0.3,0.2,0.6,0.5,0.8,0.9
			S151,112.9,151,113.3L151,113.3L151,113.3z M149.8,113.3c0-0.3-0.1-0.5-0.2-0.8c-0.1-0.2-0.3-0.4-0.4-0.6
			c-0.2-0.2-0.4-0.3-0.7-0.4c-0.3-0.1-0.6-0.2-0.9-0.2s-0.6,0.1-0.9,0.2c-0.3,0.1-0.5,0.2-0.7,0.4c-0.2,0.2-0.3,0.4-0.5,0.6
			s-0.2,0.5-0.2,0.8s0.1,0.5,0.2,0.7c0.1,0.2,0.3,0.4,0.5,0.6c0.2,0.2,0.4,0.3,0.7,0.4c0.3,0.1,0.6,0.1,0.9,0.1c0.3,0,0.6,0,0.9-0.1
			c0.3-0.1,0.5-0.2,0.7-0.4c0.2-0.2,0.3-0.4,0.4-0.6C149.8,113.8,149.8,113.6,149.8,113.3z"/>
		<path class="st0" d="M154,110.6h1.2v2.7c0,0.3,0,0.6,0.1,0.8c0.1,0.2,0.2,0.4,0.3,0.5c0.1,0.1,0.3,0.2,0.5,0.3
			c0.2,0.1,0.4,0.1,0.7,0.1c0.2,0,0.4,0,0.6-0.1c0.2-0.1,0.4-0.2,0.5-0.3c0.1-0.1,0.3-0.3,0.3-0.6c0.1-0.2,0.1-0.5,0.1-0.8l0-2.7
			h1.2v2.6c0,0.4-0.1,0.8-0.2,1.2c-0.1,0.4-0.3,0.7-0.6,0.9c-0.2,0.2-0.5,0.4-0.9,0.6c-0.4,0.1-0.7,0.2-1.2,0.2
			c-0.4,0-0.8-0.1-1.2-0.2c-0.4-0.1-0.7-0.3-0.9-0.6c-0.2-0.2-0.4-0.5-0.6-0.9c-0.1-0.3-0.2-0.7-0.2-1.1L154,110.6L154,110.6
			L154,110.6z"/>
		<path class="st0" d="M168.2,112.5c0,0.3-0.1,0.6-0.2,0.8c-0.1,0.2-0.3,0.4-0.5,0.6c-0.2,0.2-0.5,0.3-0.7,0.4s-0.6,0.1-0.9,0.1
			h-1.7v1.6H163v-5.4h2.9c0.3,0,0.6,0,0.9,0.1c0.3,0.1,0.5,0.2,0.8,0.4s0.4,0.4,0.5,0.6S168.2,112.2,168.2,112.5L168.2,112.5
			L168.2,112.5z M167,112.5c0-0.1,0-0.2-0.1-0.3c-0.1-0.1-0.1-0.2-0.2-0.3c-0.1-0.1-0.2-0.2-0.4-0.2c-0.1-0.1-0.3-0.1-0.5-0.1h-1.6
			v1.9h1.5c0.2,0,0.3,0,0.5-0.1c0.2,0,0.3-0.1,0.4-0.2c0.1-0.1,0.2-0.2,0.3-0.3C166.9,112.8,167,112.7,167,112.5z"/>
		<path class="st0" d="M175.7,110.6h1.3l2.1,4.1l2.1-4.1h1.2l-2.8,5.4h-1L175.7,110.6L175.7,110.6L175.7,110.6z"/>
		<path class="st0" d="M185.3,116v-5.4h4.8v0.9h-3.5v1.4h3v0.9h-3v1.4h3.6v0.9L185.3,116L185.3,116z"/>
		<path class="st0" d="M198.5,116l-3.9-3.4v3.4h-1.2v-5.4h0.7l3.7,3.2v-3.2h1.2v5.4H198.5z"/>
		<path class="st0" d="M205.7,111.5v4.5h-1.2l0-4.5h-2.3v-0.9h5.9v0.9H205.7L205.7,111.5z"/>
		<path class="st0" d="M211,110.6h1.2v2.7c0,0.3,0,0.6,0.1,0.8c0.1,0.2,0.2,0.4,0.3,0.5c0.1,0.1,0.3,0.2,0.5,0.3
			c0.2,0.1,0.4,0.1,0.7,0.1c0.2,0,0.4,0,0.6-0.1c0.2-0.1,0.4-0.2,0.5-0.3c0.1-0.1,0.3-0.3,0.3-0.6c0.1-0.2,0.1-0.5,0.1-0.8l0-2.7
			h1.2v2.6c0,0.4-0.1,0.8-0.2,1.2c-0.1,0.4-0.3,0.7-0.6,0.9c-0.2,0.2-0.5,0.4-0.9,0.6c-0.4,0.1-0.7,0.2-1.2,0.2
			c-0.4,0-0.8-0.1-1.2-0.2c-0.4-0.1-0.7-0.3-0.9-0.6c-0.2-0.2-0.4-0.5-0.6-0.9c-0.1-0.3-0.2-0.7-0.2-1.1L211,110.6L211,110.6
			L211,110.6z"/>
		<path class="st0" d="M224.1,116c-0.2-0.3-0.5-0.6-0.7-0.9c-0.1-0.1-0.2-0.2-0.3-0.4c-0.1-0.1-0.2-0.2-0.3-0.4
			c-0.1-0.1-0.2-0.2-0.3-0.3c-0.1-0.1-0.2-0.2-0.2-0.3h-1l0,2.1H220v-5.4h3.2c0.3,0,0.6,0,0.9,0.1c0.3,0.1,0.5,0.2,0.7,0.3
			c0.2,0.1,0.3,0.3,0.5,0.5s0.2,0.4,0.2,0.6c0,0.2,0,0.4-0.1,0.6c-0.1,0.2-0.2,0.4-0.4,0.5c-0.2,0.1-0.4,0.3-0.6,0.4
			c-0.2,0.1-0.4,0.2-0.7,0.2l0.1,0l1.6,2.1v0.1L224.1,116L224.1,116z M224.2,112.2c0-0.2-0.1-0.4-0.2-0.5c-0.2-0.1-0.4-0.2-0.8-0.2
			h-2v1.4l1.9,0c0.3,0,0.6-0.1,0.8-0.2C224.1,112.6,224.2,112.4,224.2,112.2L224.2,112.2L224.2,112.2z"/>
		<path class="st0" d="M228.9,116v-5.4h4.8v0.9h-3.5v1.4h3v0.9h-3v1.4h3.6v0.9L228.9,116L228.9,116z"/>
	</g>
	<g>
		<path d="M107.9,66.3c0,1.9-0.4,3.6-1.1,5.2c-0.7,1.6-1.8,3-3.2,4.2c-1.4,1.2-3,2.1-5,2.8c-1.9,0.7-4.1,1-6.6,1H79.7V53.1h13.7
			c2.2,0,4.2,0.4,6,1.1c1.8,0.7,3.3,1.7,4.6,2.9s2.2,2.6,2.9,4.2C107.6,62.9,107.9,64.5,107.9,66.3L107.9,66.3L107.9,66.3z
			 M102,66.4c0-1.2-0.2-2.4-0.6-3.5c-0.4-1.1-1-2.1-1.9-2.9c-0.9-0.8-2-1.4-3.3-1.9c-1.4-0.5-3-0.7-4.9-0.7h-5.5l-0.1,17.7h5.4
			c1.7,0,3.2-0.2,4.5-0.7c1.3-0.5,2.5-1.1,3.4-1.9c0.9-0.8,1.7-1.7,2.2-2.8S102,67.6,102,66.4L102,66.4L102,66.4z"/>
		<path d="M113.2,79.4V53.1h23.3v4.3h-17.2v6.9h14.8v4.2h-14.8v6.6H137v4.4L113.2,79.4L113.2,79.4z"/>
		<path d="M142.6,79.4l-0.1-26.4h6.1v21.8h17.7v4.6H142.6L142.6,79.4z"/>
		<path d="M181,57.4v22.1h-6.1l-0.1-22.1h-11.4v-4.3h29v4.3H181L181,57.4z"/>
		<path d="M213.7,79.4l-2.7-5.9l-13.1,0l-2.8,5.9h-5.8l13-26.5h5l12.4,26.5L213.7,79.4L213.7,79.4z M204.5,59.5L204.5,59.5l-4.7,9.9
			h9.3L204.5,59.5z"/>
	</g>
	<path class="st1" d="M188.1,41.8l-42-39.3l-41.3,39.3l15.6,0l0,0l14.5,0l5.7,0l5.6,0l5.6,0l5.5,0l14.7,0l0,0L188.1,41.8L188.1,41.8
		z M151.7,39.2l-2.2,0l7.7-7.3l7.8,7.3L151.7,39.2L151.7,39.2L151.7,39.2z M127.2,39.1l7.7-7.3l7.8,7.3l-2.1,0L127.2,39.1z
		 M144.7,7.6v29.8l-8.4-7.9V15.6C136.3,15.6,144.7,7.6,144.7,7.6z M155.9,29.3l-8.4,8V7.5l8.4,7.9V29.3L155.9,29.3L155.9,29.3z
		 M158.6,29.5V18l22.5,21.1l-12.2,0L158.6,29.5L158.6,29.5L158.6,29.5z M133.5,18.2v11.1l-10.3,9.8l-11.6,0L133.5,18.2L133.5,18.2
		L133.5,18.2z"/>
	<g>
		<path class="st2" d="M87.7,96h-1.3l-1.6-4.4c-0.3,0.7-0.5,1.5-0.7,2.2c-0.2,0.7-0.5,1.5-0.8,2.2h-1.4l-2.8-6.5v-0.3h2l1.6,4
			c0.2-0.7,0.4-1.3,0.6-2c0.2-0.7,0.4-1.3,0.6-2h1.6l1.5,4c0.3-0.7,0.5-1.4,0.7-2c0.2-0.7,0.5-1.4,0.7-2h1.8v0.3L87.7,96L87.7,96
			L87.7,96z"/>
		<path class="st2" d="M101.2,92.6c0,0.6-0.1,1.1-0.4,1.5c-0.3,0.4-0.6,0.8-1,1.1c-0.4,0.3-0.9,0.5-1.4,0.7c-0.5,0.1-1,0.2-1.6,0.2
			s-1.1-0.1-1.6-0.2c-0.5-0.1-1-0.4-1.4-0.7s-0.7-0.7-1-1.1c-0.3-0.4-0.4-1-0.4-1.6c0-0.6,0.1-1.1,0.4-1.6c0.3-0.5,0.6-0.8,1-1.1
			c0.4-0.3,0.9-0.5,1.4-0.7c0.5-0.1,1-0.2,1.6-0.2s1.1,0.1,1.6,0.2s1,0.4,1.4,0.7c0.4,0.3,0.7,0.7,1,1.1
			C101.1,91.5,101.2,92,101.2,92.6L101.2,92.6L101.2,92.6z M99.4,92.6c0-0.3-0.1-0.6-0.2-0.8s-0.3-0.5-0.5-0.7
			c-0.2-0.2-0.5-0.3-0.8-0.5c-0.3-0.1-0.7-0.2-1.1-0.2c-0.4,0-0.8,0.1-1.1,0.2c-0.3,0.1-0.6,0.3-0.8,0.5c-0.2,0.2-0.4,0.4-0.5,0.7
			c-0.1,0.3-0.2,0.5-0.2,0.8s0.1,0.5,0.2,0.8c0.1,0.3,0.3,0.5,0.5,0.7c0.2,0.2,0.5,0.3,0.8,0.4c0.3,0.1,0.7,0.2,1.1,0.2
			c0.4,0,0.8-0.1,1.1-0.2c0.3-0.1,0.6-0.3,0.8-0.4c0.2-0.2,0.4-0.4,0.5-0.7C99.3,93.2,99.4,92.9,99.4,92.6L99.4,92.6L99.4,92.6z"/>
		<path class="st2" d="M109.2,96l-2.5-2.5h-0.7V96H104l0-6.8h4.2c0.9,0,1.5,0.2,1.9,0.6c0.4,0.4,0.7,0.9,0.7,1.5
			c0,0.3-0.1,0.5-0.2,0.7c-0.1,0.2-0.3,0.4-0.5,0.6c-0.2,0.2-0.4,0.3-0.7,0.5c-0.3,0.1-0.5,0.2-0.8,0.3l2.3,2.3V96L109.2,96
			L109.2,96z M109,91.3c0-0.1,0-0.2,0-0.3s-0.1-0.2-0.2-0.2s-0.2-0.1-0.3-0.2c-0.1,0-0.3-0.1-0.5-0.1h-2V92c0.2,0,0.4,0,0.6,0
			c0.2,0,0.4,0,0.6,0h0.7c0.4,0,0.7-0.1,0.9-0.2C108.9,91.6,109,91.5,109,91.3L109,91.3L109,91.3z"/>
		<path class="st2" d="M113.9,96l0-6.8h1.9v5.3h4.6V96H113.9z"/>
		<path class="st2" d="M131,92.6c0,0.5-0.1,0.9-0.3,1.3c-0.2,0.4-0.5,0.8-0.9,1.1s-0.8,0.5-1.4,0.7c-0.5,0.2-1.1,0.3-1.8,0.3h-3.3
			v-6.8h3.7c0.6,0,1.2,0.1,1.6,0.3c0.5,0.2,0.9,0.4,1.2,0.7c0.3,0.3,0.6,0.7,0.8,1.1C130.9,91.7,131,92.1,131,92.6L131,92.6
			L131,92.6z M129.2,92.6c0-0.3,0-0.5-0.1-0.8c-0.1-0.3-0.2-0.5-0.5-0.7c-0.2-0.2-0.5-0.3-0.8-0.4c-0.3-0.1-0.8-0.2-1.2-0.2h-1.3
			c0,0.7,0,1.4,0,2c0,0.7,0,1.3,0,2h1.2c0.4,0,0.8-0.1,1.1-0.2c0.3-0.1,0.6-0.3,0.8-0.4c0.2-0.2,0.4-0.4,0.5-0.6
			C129.1,93.1,129.2,92.9,129.2,92.6L129.2,92.6L129.2,92.6z"/>
		<path class="st2" d="M148,92.6c0,0.6-0.1,1.1-0.4,1.5c-0.3,0.4-0.6,0.8-1,1.1c-0.4,0.3-0.9,0.5-1.4,0.7c-0.5,0.1-1,0.2-1.6,0.2
			c-0.5,0-1.1-0.1-1.6-0.2c-0.5-0.1-1-0.4-1.4-0.7c-0.4-0.3-0.7-0.7-1-1.1c-0.3-0.4-0.4-1-0.4-1.6c0-0.6,0.1-1.1,0.4-1.6
			c0.3-0.5,0.6-0.8,1-1.1c0.4-0.3,0.9-0.5,1.4-0.7c0.5-0.1,1-0.2,1.6-0.2c0.5,0,1.1,0.1,1.6,0.2c0.5,0.2,1,0.4,1.4,0.7
			c0.4,0.3,0.7,0.7,1,1.1C147.8,91.5,148,92,148,92.6L148,92.6L148,92.6z M146.1,92.6c0-0.3-0.1-0.6-0.2-0.8s-0.3-0.5-0.5-0.7
			c-0.2-0.2-0.5-0.3-0.8-0.5c-0.3-0.1-0.7-0.2-1.1-0.2s-0.8,0.1-1.1,0.2c-0.3,0.1-0.6,0.3-0.8,0.5c-0.2,0.2-0.4,0.4-0.5,0.7
			c-0.1,0.3-0.2,0.5-0.2,0.8s0.1,0.5,0.2,0.8c0.1,0.3,0.3,0.5,0.5,0.7c0.2,0.2,0.5,0.3,0.8,0.4s0.7,0.2,1.1,0.2
			c0.4,0,0.8-0.1,1.1-0.2c0.3-0.1,0.6-0.3,0.8-0.4c0.2-0.2,0.4-0.4,0.5-0.7C146.1,93.2,146.1,92.9,146.1,92.6L146.1,92.6L146.1,92.6
			z"/>
		<path class="st2" d="M152.6,90.6c0,0.3,0,0.5,0,0.7c0,0.2,0,0.5,0,0.7h3.6v1.4h-3.6c0,0.4,0,0.8,0,1.3c0,0.4,0,0.9,0,1.3h-1.9
			v-6.8h6.3v1.4L152.6,90.6L152.6,90.6z"/>
		<path class="st2" d="M170.4,96h-1.5l-3.6-6.5l0-0.2h1.9l2.5,4.7c0.4-0.8,0.8-1.6,1.2-2.3c0.4-0.8,0.8-1.6,1.2-2.3h1.9v0.2
			L170.4,96L170.4,96z"/>
		<path class="st2" d="M181.3,96l-0.6-1.3h-3.4l-0.6,1.3h-1.9l3.6-6.8h1.5l3.4,6.8H181.3z M179,91.2l-1.1,2.1h2.1L179,91.2z"/>
		<path class="st2" d="M186,96l0-6.8h1.9v5.3h4.6V96H186z"/>
		<path class="st2" d="M202.3,94c-0.2,0.4-0.4,0.8-0.8,1.1c-0.3,0.3-0.7,0.5-1.2,0.7c-0.5,0.2-1,0.2-1.6,0.2c-0.6,0-1.1-0.1-1.6-0.2
			c-0.5-0.2-0.9-0.4-1.2-0.7c-0.3-0.3-0.6-0.7-0.8-1.1c-0.2-0.4-0.3-0.9-0.3-1.4c0-0.6,0-1.1,0-1.7c0-0.6,0-1.1,0-1.7h1.9l0,3.3
			c0,0.4,0,0.7,0.1,1c0.1,0.3,0.2,0.5,0.4,0.6s0.4,0.3,0.6,0.3c0.2,0.1,0.5,0.1,0.8,0.1c0.3,0,0.5,0,0.7-0.1
			c0.2-0.1,0.4-0.2,0.6-0.4c0.2-0.2,0.3-0.4,0.4-0.7s0.1-0.6,0.1-0.9v-3.3h1.9v3.3C202.5,93.1,202.4,93.5,202.3,94L202.3,94
			L202.3,94z"/>
		<path class="st2" d="M205.5,96l0-6.8h6.3v1.4h-4.4c0,0.2,0,0.4,0,0.7c0,0.2,0,0.4,0,0.7h3.8v1.4h-3.8v1.3h4.5V96L205.5,96
			L205.5,96z"/>
		<path class="st2" d="M221.9,93.8c0,0.3-0.1,0.6-0.2,0.8c-0.1,0.2-0.3,0.4-0.5,0.6c-0.2,0.2-0.4,0.3-0.7,0.4
			c-0.3,0.1-0.5,0.2-0.8,0.3c-0.3,0.1-0.5,0.1-0.8,0.1c-0.3,0-0.5,0-0.8,0c-0.3,0-0.6,0-0.9-0.1s-0.5-0.1-0.8-0.2s-0.5-0.2-0.8-0.3
			c-0.3-0.1-0.6-0.3-0.9-0.4l0.6-1.3c0.3,0.1,0.6,0.3,0.9,0.4c0.3,0.1,0.5,0.2,0.7,0.3c0.2,0.1,0.4,0.1,0.6,0.2
			c0.2,0,0.4,0.1,0.5,0.1c0.2,0,0.4,0,0.7,0s0.4-0.1,0.6-0.1c0.2-0.1,0.3-0.1,0.5-0.2c0.1-0.1,0.2-0.2,0.2-0.4
			c0-0.1-0.1-0.2-0.2-0.3c-0.1-0.1-0.3-0.1-0.6-0.2c-0.2,0-0.3-0.1-0.5-0.1c-0.2,0-0.4,0-0.6-0.1c-0.1,0-0.2,0-0.3,0
			c-0.1,0-0.2,0-0.3,0c-0.3,0-0.7-0.1-1-0.2c-0.3-0.1-0.6-0.2-0.9-0.3c-0.3-0.1-0.5-0.3-0.6-0.6c-0.2-0.2-0.2-0.5-0.2-0.9
			c0-0.3,0.1-0.6,0.2-0.8c0.1-0.2,0.3-0.4,0.5-0.6c0.2-0.2,0.4-0.3,0.7-0.4c0.2-0.1,0.5-0.2,0.8-0.2c0.3-0.1,0.5-0.1,0.8-0.1
			c0.3,0,0.5,0,0.7,0c0.6,0,1.2,0.1,1.7,0.2c0.5,0.1,1.1,0.4,1.7,0.7l-0.6,1.2c-0.5-0.2-1-0.4-1.5-0.5c-0.5-0.1-0.9-0.2-1.4-0.2
			c-0.3,0-0.6,0-0.9,0.1c-0.2,0-0.4,0.1-0.5,0.2c-0.1,0.1-0.2,0.1-0.3,0.2c0,0.1-0.1,0.1-0.1,0.2c0,0.1,0.1,0.2,0.2,0.3
			c0.1,0.1,0.3,0.1,0.5,0.2c0.2,0,0.4,0.1,0.6,0.1c0.2,0,0.4,0,0.5,0c0,0,0.1,0,0.1,0c0,0,0,0,0.1,0c0.2,0,0.5,0,0.7,0.1
			c0.3,0,0.5,0.1,0.8,0.1c0.3,0.1,0.5,0.1,0.7,0.2c0.2,0.1,0.4,0.2,0.6,0.4c0.2,0.2,0.3,0.3,0.4,0.6S221.9,93.5,221.9,93.8
			L221.9,93.8L221.9,93.8z"/>
	</g>
	<path d="M215.4,57.9v-2.1h-0.8v-0.4h2v0.4h-0.8v2.1H215.4L215.4,57.9z M216.9,57.9v-2.5h0.6l0.6,2l0.6-2h0.6v2.5H219v-2.1l-0.6,2.1
		h-0.4l-0.7-2.1v2.1L216.9,57.9L216.9,57.9z"/>
	<circle class="st3" cx="216.9" cy="56.4" r="3.8"/>
	<rect x="65.3" y="103.1" class="st4" width="170.2" height="0.6"/>
</g>
</svg>
